# xmcd
# 
# Track frame offsets:
#     150
#     11887
#     32258
#     52040
#     71901
#     92950
#     115155
#     134804
#     154662
#     175310
#     197887
#     216619
#     237387
#     256528
#     285437
# 
# Disc length: 3931
# 
# Revision: 4
# Processed by: cddbd v1.5.2PL0 Copyright (c) Steve Scherf et al.
# Submitted via: fre:ac v1.1beta1pre5
# 
DISCID=e20f590f
DTITLE=browneyedsoul - Brown Eyed Soul
DYEAR=2010
DGENRE=R&B
TTITLE0=Soul Breeze
TTITLE1=Blowin’ My Mind
TTITLE2=똑같다면
TTITLE3=그대
TTITLE4=Can’t Stop Loving You
TTITLE5=Rainy
TTITLE6=With Chocolate
TTITLE7=담배가게아가씨 (FEAT. GUITAR BY 박주원)
TTITLE8=Never Forget
TTITLE9=Love Ballad
TTITLE10=You
TTITLE11=비켜줄께
TTITLE12=Gone
TTITLE13=He Is Real
TTITLE14=Your Song (Gratitude)
EXTD=
EXTT0=
EXTT1=
EXTT2=
EXTT3=
EXTT4=
EXTT5=
EXTT6=
EXTT7=
EXTT8=
EXTT9=
EXTT10=
EXTT11=
EXTT12=
EXTT13=
EXTT14=
PLAYORDER=
